<svg width="50" height="50" xmlns="http://www.w3.org/2000/svg" xmlns:xlink="http://www.w3.org/1999/xlink"><defs><path id="a" d="M0 0h24v5.42H0z"/></defs><g fill="none" fill-rule="evenodd"><circle fill="#535358" cx="25" cy="25" r="25"/><path d="M15.356 29.718c-.835.913-.108 2.282 1.212 2.282h16.864c1.32 0 2.047-1.37 1.211-2.282l-8.43-9.205c-.627-.684-1.798-.684-2.425 0l-8.432 9.205Z" fill="#FFF"/><path d="M22.548 37.912v-6.808c0-1.158 1.12-2.096 2.5-2.096 1.381 0 2.5.938 2.5 2.096v6.808c0 1.158-1.119 2.096-2.5 2.096-1.38 0-2.5-.938-2.5-2.096Z" fill="#FFF"/><g transform="translate(13 14)"><mask id="b" fill="#fff"><use xlink:href="#a"/></mask><path d="M0 2.5C0 1.12 1.213 0 2.71 0h18.58C22.787 0 24 1.12 24 2.5S22.787 5 21.29 5H2.71C1.213 5 0 3.88 0 2.5" fill="#FFF" mask="url(#b)"/></g></g></svg>